.
..............................Site Info...........................

 -   http://www.scenetime.com  *_*   

SceneTime is going to Close sign up on march/1, hurry up! get in before the doors are closed.

     We care to share . Join us on  http://www.scenetime.com 

    Be the first to get new release at  http://www.scenetime.com

        Seed back for speed


...................................NFO:.................................................[IMG]http://img819.imageshack.us/img819/7768/columbuscircle.jpg[/IMG]


[color=blue][size=5][b]Columbus.Circle.2012.DVDRip.XVID.AC3.HQ.Hive-CM8[/b][/size][/color]


[b] Thx Hive

CM8 Doing it right the first time :D

Source: DVD-R

Encode:
dvd quality was good, also a bit videonoise in it, which is removed now, added brightness,sharpness,rgb and denoise
got nice
enjoy


Video: 720x304 @bitrate 1700 2pass
Audio: English AC3 5.1 @448
Sample: yes included
Subs: yes english in srt /subs
[/b]


[url]http://www.imdb.com/title/tt1465533/[/url]


General
Complete name                  : Columbus.Circle.2012.DVDRip.XVID.AC3.HQ.Hive-CM8.avi
Format                         : AVI
Format/Info                    : Audio Video Interleave
File size                      : 1.24 GiB
Duration                       : 1h 22mn
Overall bit rate               : 2 157 Kbps
Writing application            : Nandub v1.0rc2
Writing library                : Nandub build 1853/release

Video
ID                             : 0
Format                         : MPEG-4 Visual
Format profile                 : Advanced Simple@L5
Format settings, BVOP          : 2
Format settings, QPel          : Yes
Format settings, GMC           : No warppoints
Format settings, Matrix        : Default (H.263)
Muxing mode                    : Packed bitstream
Codec ID                       : XVID
Codec ID/Hint                  : XviD
Duration                       : 1h 22mn
Bit rate                       : 1 699 Kbps
Width                          : 720 pixels
Height                         : 304 pixels
Display aspect ratio           : 2.35:1
Frame rate                     : 25.000 fps
Color space                    : YUV
Chroma subsampling             : 4:2:0
Bit depth                      : 8 bits
Scan type                      : Progressive
Compression mode               : Lossy
Bits/(Pixel*Frame)             : 0.311
Stream size                    : 1 000 MiB (79%)
Writing library                : XviD 1.2.1 (UTC 2008-12-04)

Audio
ID                             : 1
Format                         : AC-3
Format/Info                    : Audio Coding 3
Mode extension                 : CM (complete main)
Codec ID                       : 2000
Duration                       : 1h 22mn
Bit rate mode                  : Constant
Bit rate                       : 448 Kbps
Channel(s)                     : 6 channels
Channel positions              : Front: L C R, Side: L R, LFE
Sampling rate                  : 48.0 KHz
Bit depth                      : 16 bits
Compression mode               : Lossy
Stream size                    : 264 MiB (21%)
Alignment                      : Split accross interleaves
Interleave, duration           : 40 ms (1.00 video frame)
Interleave, preload duration   : 500 ms


An heiress who's been shut inside her apartment building for nearly two decades is forced to 
confront her fears after one of her neighbors is killed and a detective arrives to begin the investigation. 


Selma Blair	... 	Abigail
Amy Smart	... 	Lillian Hart
Jason Lee	... 	Charles Stratford
Giovanni Ribisi	... 	Detective Frank Giardello
Kevin Pollak	... 	Klandermann
Beau Bridges	... 	Dr. Raymond Fontaine

[img]http://img408.imageshack.us/img408/8496/ccccccccccq.png[/img]
[img]http://img684.imageshack.us/img684/4355/ccccccccccccv.png[/img]
[img]http://img717.imageshack.us/img717/7486/ccccccccv.png[/img]
[img]http://img835.imageshack.us/img835/3271/ccccccf.png[/img]
[img]http://img853.imageshack.us/img853/9264/cccco.png[/img]
[img]http://img3.imageshack.us/img3/7556/47712709.png[/img]
[img]http://img821.imageshack.us/img821/8937/ccccccccccccccb.png[/img]




Greetz

ViSiON,SPK,SceneLovers,PRESTiGE,SANTi,3LT0N,YanKeeS,MAGNET,THC,T0XiC,LKRG,Feel-Free,FLAWL3SS,
WBZ,BHRG,26K,NOVA,D2U,TED,COPYxRIGHT,jtr,Rapeseed,SAFC,goldadvance,KaN1vE,Unevano,Pinnz,Wayne
Mr Hive,and most P2P groups
Great Work Guys :D


LOOKING FOR ANYTHING YOU WANT TO LOOK AND SOUND BETTER

CM8@hushmail.com